Coordinates
version=1
nRows=16
nColumns=36
inDegrees=yes

Units are S.I. units (second, meters, Newtons, ...)
If the header above contains a line with 'inDegrees', this indicates whether rotational values are in degrees (yes) or radians (no).

endheader
time	pelvis_tilt	pelvis_list	pelvis_rotation	pelvis_tx	pelvis_ty	pelvis_tz	hip_flexion_r	hip_adduction_r	hip_rotation_r	knee_angle_r	knee_angle_r_beta	ankle_angle_r	subtalar_angle_r	mtp_angle_r	hip_flexion_l	hip_adduction_l	hip_rotation_l	knee_angle_l	knee_angle_l_beta	ankle_angle_l	subtalar_angle_l	mtp_angle_l	lumbar_extension	lumbar_bending	lumbar_rotation	arm_flex_r	arm_add_r	arm_rot_r	elbow_flex_r	pro_sup_r	arm_flex_l	arm_add_l	arm_rot_l	elbow_flex_l	pro_sup_l
     14.85000000	     -6.76310782	     -3.93870192	     -0.41448926	      0.71538337	      1.00850932	      0.83140874	     31.75344848	      2.59263483	     -8.47254363	     14.15312865	      0.24701869	      5.30246695	      1.43000116	     -7.49999987	     -4.66383089	     -6.16209357	     -8.31025497	     27.00502309	      0.47132657	     13.16606064	      4.47899355	     -7.49999987	     -0.55146642	      9.14665609	     -4.23591394	     -1.52519776	    -11.87068453	     -2.30336957	     11.71271336	     79.00676252	     13.73702004	    -11.30089718	    -14.72231970	     55.59530398	     71.65011705
     14.86666670	     -6.71696580	     -5.79987006	     -0.39153667	      0.71530797	      1.00598479	      0.83461736	     31.67078254	      4.54272154	     -8.59677457	     16.40955614	      0.28640078	      4.59249190	     -0.54375512	     -7.49999987	     -4.11812266	     -8.85406044	     -8.03049468	     31.11519297	      0.54306256	      8.85990071	      3.35506597	     -7.49999987	     -0.12792298	     11.15012863	     -3.62008658	     -2.22492891	    -12.44654902	     -1.83831485	     12.00495479	     78.02604705	     13.37985771	    -10.36925033	    -14.03735578	     55.47673461	     71.06106611
     14.88333330	     -6.50303463	     -7.25152124	     -0.63414611	      0.71431086	      1.00603044	      0.83599310	     31.37790502	      6.27626081	     -7.94321332	     18.48047113	      0.32254507	      4.15206266	     -2.92091893	     -7.49999987	     -3.25684991	    -11.08074802	     -7.57701703	     35.59480509	      0.62124655	      2.94843628	      1.83797294	     -7.49999987	     -0.09843407	     12.70108158	     -3.18547981	     -1.93547907	    -12.99601312	      0.19335656	     11.44723486	     79.05173826	     12.67363277	     -9.84570325	    -13.49302198	     55.45449227	     71.82133409
     14.90000000	     -6.23712622	     -8.74474791	     -0.52123398	      0.71315876	      1.00819459	      0.83637633	     30.78415482	      7.79810291	     -7.99040655	     20.04127895	      0.34978630	      4.28041148	     -4.40403363	     -7.49999987	     -1.83961442	    -13.25145292	     -6.30883875	     40.37423572	      0.70466335	     -3.56921629	      0.13027489	     -7.49999987	     -0.16638632	     14.42709855	     -2.74239429	     -1.85421049	    -13.51782012	      0.41590499	     12.13098271	     77.67356020	     12.06270363	     -9.05800879	    -12.87629741	     55.04124256	     71.18100368
     14.91666670	     -6.11399861	     -9.98775875	     -0.44273398	      0.71275190	      1.01247494	      0.83866914	     30.09353283	      9.13034137	     -7.92792713	     21.06330044	      0.36762394	      4.38740342	     -5.86857836	     -7.49999987	      0.03553175	    -15.04579445	     -4.84021474	     44.98250861	      0.78509288	     -9.38152624	     -1.24574178	     -7.49999987	     -0.25073037	     15.88732484	     -2.38762567	     -1.54544797	    -13.91443819	      0.62693497	     13.09479209	     76.33647086	     11.03310136	     -8.38217495	    -12.44300853	     54.92255306	     70.45339561
     14.93333330	     -5.60310637	    -10.84412085	     -0.21983573	      0.71369436	      1.01814557	      0.84247874	     28.78267448	     10.06876069	     -7.96393591	     21.72347539	      0.37914617	      4.96612219	     -6.70823932	     -7.49999987	      1.74398397	    -16.28288906	     -3.17583935	     49.19073039	      0.85854021	    -13.43941249	     -2.07091130	     -7.49999987	     -0.93478357	     16.87561597	     -1.98262809	     -0.95713846	    -14.08860992	      0.69651462	     13.80886647	     76.51643427	     10.00916187	     -7.72912129	    -12.15073408	     54.38750905	     70.70381193
     14.95000000	     -5.28929199	    -11.37305586	      0.10130252	      0.71560812	      1.02317540	      0.84616659	     27.44788337	     10.67235310	     -8.10599246	     21.99363591	      0.38386136	      5.38750644	     -7.40179339	     -7.49999987	      3.87380139	    -17.03938671	     -1.37321633	     53.03806820	      0.92568892	    -15.80557741	     -2.84146428	     -7.49999987	     -1.47715973	     17.52303115	     -1.93989262	     -0.32190629	    -14.10890083	      0.74540432	     15.00304586	     76.74252123	      8.77807194	     -7.29024482	    -11.76480008	     53.23428528	     71.08466721
     14.96666670	     -4.99084294	    -11.65793473	      0.44141559	      0.71702699	      1.02775644	      0.84873012	     25.97894280	     11.05754131	     -8.25156965	     22.06577248	      0.38512038	      5.99151891	     -7.67577405	     -7.49999987	      6.03833932	    -17.39527096	      0.38437683	     56.39373910	      0.98425642	    -16.60632821	     -3.63771539	     -7.49999987	     -2.02231359	     17.87462492	     -2.01069383	      0.54069676	    -13.97593375	      0.79691604	     16.20891153	     76.98131013	      7.62605697	     -6.90901509	    -11.21247644	     51.36355016	     71.50638581
     14.98333330	     -4.60140275	    -11.55299835	      0.72605783	      0.71690890	      1.03266021	      0.85078418	     24.13799838	     11.12412932	     -8.26613724	     21.68967486	      0.37855624	      6.59825977	     -7.52479291	     -7.49999987	      7.99816068	    -17.27460776	      1.76884148	     59.15072548	      1.03237491	    -16.23494921	     -4.54364638	     -7.49999987	     -2.79252589	     17.79411255	     -1.91458794	      1.60544227	    -13.78363116	      0.85774120	     17.10635417	     77.15096426	      6.54712680	     -6.62654832	    -10.68653516	     49.18510681	     71.78099073
     15.00000000	     -3.97447880	    -11.20735440	      0.94087628	      0.71637649	      1.03730402	      0.85349153	     21.81943106	     11.03728135	     -8.09900478	     20.91954949	      0.36511502	      7.09717274	     -7.15029267	     -7.49999987	      9.71697736	    -16.79879087	      2.87621385	     61.43195359	      1.07218986	    -15.03681807	     -5.64283255	     -7.49999987	     -3.87436172	     17.41473691	     -1.46847639	      2.75589927	    -13.51804264	      1.03785189	     17.87786945	     75.82856004	      5.85088787	     -6.34301008	     -9.87093121	     46.13628743	     70.94555723
     15.01666670	     -3.21785393	    -10.65385552	      1.20895458	      0.71743346	      1.04177591	      0.85731761	     19.12076540	     10.74123361	     -8.10009478	     19.74753525	      0.34465951	      7.54765140	     -6.40500369	     -7.49999987	     11.54221732	    -16.00763232	      3.83669341	     63.31839829	      1.10511453	    -13.36620461	     -7.26699389	     -7.49999987	     -5.11799915	     16.75863521	     -1.01054791	      3.81502089	    -13.21326918	      1.19438149	     18.65857664	     75.26549338	      5.10062321	     -6.14093105	     -9.25383446	     43.12817467	     70.57876475
     15.03333330	     -2.43248472	     -9.97838706	      1.49176234	      0.71857044	      1.04631599	      0.86132304	     16.27690084	     10.32012373	     -8.32262119	     18.38641438	      0.32090347	      8.15766829	     -5.24943286	     -7.49999987	     13.59687203	    -15.04951534	      4.64083602	     64.89712106	      1.13266844	    -11.48743085	     -9.20376906	     -7.49999987	     -6.36897834	     15.91371329	     -0.75884088	      4.82309792	    -12.90635467	      1.31895174	     19.48345617	     75.58613207	      4.11422437	     -5.98001732	     -8.92217568	     40.32359875	     70.82324343
     15.05000000	     -1.40201833	     -9.05531608	      1.64898071	      0.71713950	      1.05086226	      0.86453262	     13.15122615	      9.70832623	     -8.35581614	     16.97127588	      0.29620464	      8.88589315	     -3.98646915	     -7.49999987	     15.32090777	    -13.94406759	      4.97892494	     65.70005993	      1.14668236	     -9.15482137	    -10.77725570	     -7.49999987	     -7.99573334	     14.71151729	     -0.13936091	      5.70596991	    -12.54236194	      1.23546976	     20.23215251	     75.01257007	      3.47650868	     -5.77201951	     -8.62305018	     37.33245096	     70.43024833
     15.06666670	     -0.43747415	     -7.99717173	      1.75587063	      0.71437295	      1.05410584	      0.86619930	     10.15126587	      8.91354518	     -8.38475206	     15.55373026	      0.27146380	      9.63039131	     -2.74988919	     -7.49999987	     16.83224079	    -12.81154582	      4.90615265	     65.41228651	      1.14165977	     -6.79523985	    -12.02376874	     -7.49999987	     -9.49418645	     13.30161297	      0.28226715	      6.61108297	    -12.21787804	      1.25626101	     20.85576202	     75.46402561	      2.76756833	     -5.64906129	     -8.33000056	     34.85322486	     70.74237134
     15.08333330	      0.54838322	     -6.93363425	      1.80787566	      0.71209268	      1.05586712	      0.86671082	      7.19821379	      8.03708866	     -8.48618092	     14.19544079	      0.24775718	     10.50120297	     -1.28360515	     -7.49999987	     17.87932343	    -11.79326254	      4.41604569	     64.07773180	      1.11836740	     -4.70054406	    -12.69611283	     -7.49999987	    -10.98918334	     11.92093587	      0.84121900	      7.31350620	    -12.01688724	      1.09013765	     21.53160402	     75.92681095	      2.35129887	     -5.44511441	     -8.04844188	     32.16616222	     71.08431323
     15.10000000	      1.11918527	     -5.93382601	      1.72025633	      0.70951500	      1.05684830	      0.86711432	      4.75538445	      7.15626313	     -8.61483481	     12.91373152	      0.22538713	     11.22184022	     -0.02907702	     -7.49999987	     18.99379958	    -10.92641966	      3.57842439	     61.99731515	      1.08205728	     -3.06586726	    -13.07436839	     -7.49999987	    -11.89706354	     10.57413464	      1.96529866	      7.29207135	    -11.98735250	      0.22030287	     22.91537062	     75.55511110	      2.17801596	     -5.23771113	     -6.80005065	     29.30710157	     71.04495462
